<svg id="iconmonstr" xmlns="http://www.w3.org/2000/svg" viewBox="0 0 24 11"><defs><style>.cls-1{fill:#fff;}</style></defs><title>souncloud</title><path id="soundcloud-1" class="cls-1" d="M7,17.94H6V9.87A4.11,4.11,0,0,1,7,9.3v8.63Zm3,0h1V8.71a5.54,5.54,0,0,0-.62.86L10,9.39v8.55Zm-2,0H9V9.09a2.82,2.82,0,0,0-1,0v8.86Zm-4,0H5v-7a4.69,4.69,0,0,0-.69,1.53A2.77,2.77,0,0,0,4,12.27v5.67ZM1,12.69a3.07,3.07,0,0,0,0,4.54V12.69ZM19.88,12a5.29,5.29,0,0,0-5.12-5.08A4.84,4.84,0,0,0,12,7.82V17.94h9.09A3,3,0,0,0,24,14.83,2.92,2.92,0,0,0,19.88,12ZM3,12a2.19,2.19,0,0,0-1,.12V17.8a2.62,2.62,0,0,0,1,.14V12Z" transform="translate(0 -6.94)"/></svg>